<svg id="visual" viewBox="0 0 900 300" width="900" height="300" xmlns="http://www.w3.org/2000/svg" xmlns:xlink="http://www.w3.org/1999/xlink" version="1.1"><rect x="0" y="0" width="900" height="300" fill="#001829"></rect><path d="M0 208L10.7 207.8C21.3 207.7 42.7 207.3 64.2 204.3C85.7 201.3 107.3 195.7 128.8 193.2C150.3 190.7 171.7 191.3 193 193.3C214.3 195.3 235.7 198.7 257 203.5C278.3 208.3 299.7 214.7 321.2 212.3C342.7 210 364.3 199 385.8 192C407.3 185 428.7 182 450 187.7C471.3 193.3 492.7 207.7 514.2 206C535.7 204.3 557.3 186.7 578.8 179.7C600.3 172.7 621.7 176.3 643 182.5C664.3 188.7 685.7 197.3 707 197.8C728.3 198.3 749.7 190.7 771.2 183.7C792.7 176.7 814.3 170.3 835.8 171.2C857.3 172 878.7 180 889.3 184L900 188L900 0L889.3 0C878.7 0 857.3 0 835.8 0C814.3 0 792.7 0 771.2 0C749.7 0 728.3 0 707 0C685.7 0 664.3 0 643 0C621.7 0 600.3 0 578.8 0C557.3 0 535.7 0 514.2 0C492.7 0 471.3 0 450 0C428.7 0 407.3 0 385.8 0C364.3 0 342.7 0 321.2 0C299.7 0 278.3 0 257 0C235.7 0 214.3 0 193 0C171.7 0 150.3 0 128.8 0C107.3 0 85.7 0 64.2 0C42.7 0 21.3 0 10.7 0L0 0Z" fill="#bbccff"></path><path d="M0 173L10.7 175C21.3 177 42.7 181 64.2 183.7C85.7 186.3 107.3 187.7 128.8 188.5C150.3 189.3 171.7 189.7 193 182.3C214.3 175 235.7 160 257 153C278.3 146 299.7 147 321.2 152.8C342.7 158.7 364.3 169.3 385.8 173.7C407.3 178 428.7 176 450 179C471.3 182 492.7 190 514.2 192C535.7 194 557.3 190 578.8 188.5C600.3 187 621.7 188 643 182.5C664.3 177 685.7 165 707 158.5C728.3 152 749.7 151 771.2 152.5C792.7 154 814.3 158 835.8 162C857.3 166 878.7 170 889.3 172L900 174L900 0L889.3 0C878.7 0 857.3 0 835.8 0C814.3 0 792.7 0 771.2 0C749.7 0 728.3 0 707 0C685.7 0 664.3 0 643 0C621.7 0 600.3 0 578.8 0C557.3 0 535.7 0 514.2 0C492.7 0 471.3 0 450 0C428.7 0 407.3 0 385.8 0C364.3 0 342.7 0 321.2 0C299.7 0 278.3 0 257 0C235.7 0 214.3 0 193 0C171.7 0 150.3 0 128.8 0C107.3 0 85.7 0 64.2 0C42.7 0 21.3 0 10.7 0L0 0Z" fill="#b7c8fc"></path><path d="M0 175L10.7 171C21.3 167 42.7 159 64.2 158.5C85.7 158 107.3 165 128.8 168.2C150.3 171.3 171.7 170.7 193 170.7C214.3 170.7 235.7 171.3 257 164.8C278.3 158.3 299.7 144.7 321.2 141.7C342.7 138.7 364.3 146.3 385.8 152.7C407.3 159 428.7 164 450 160.2C471.3 156.3 492.7 143.7 514.2 145.3C535.7 147 557.3 163 578.8 166.5C600.3 170 621.7 161 643 155.7C664.3 150.3 685.7 148.7 707 147.5C728.3 146.3 749.7 145.7 771.2 148.2C792.7 150.7 814.3 156.3 835.8 161.5C857.3 166.7 878.7 171.3 889.3 173.7L900 176L900 0L889.3 0C878.7 0 857.3 0 835.8 0C814.3 0 792.7 0 771.2 0C749.7 0 728.3 0 707 0C685.7 0 664.3 0 643 0C621.7 0 600.3 0 578.8 0C557.3 0 535.7 0 514.2 0C492.7 0 471.3 0 450 0C428.7 0 407.3 0 385.8 0C364.3 0 342.7 0 321.2 0C299.7 0 278.3 0 257 0C235.7 0 214.3 0 193 0C171.7 0 150.3 0 128.8 0C107.3 0 85.7 0 64.2 0C42.7 0 21.3 0 10.7 0L0 0Z" fill="#b3c4f9"></path><path d="M0 121L10.7 121.7C21.3 122.3 42.7 123.7 64.2 125.7C85.7 127.7 107.3 130.3 128.8 136C150.3 141.7 171.7 150.3 193 147.8C214.3 145.3 235.7 131.7 257 132.5C278.3 133.3 299.7 148.7 321.2 155.7C342.7 162.7 364.3 161.3 385.8 159.5C407.3 157.7 428.7 155.3 450 148.3C471.3 141.3 492.7 129.7 514.2 129C535.7 128.3 557.3 138.7 578.8 140.7C600.3 142.7 621.7 136.3 643 131.3C664.3 126.3 685.7 122.7 707 124.7C728.3 126.7 749.7 134.3 771.2 140.5C792.7 146.7 814.3 151.3 835.8 149.2C857.3 147 878.7 138 889.3 133.5L900 129L900 0L889.3 0C878.7 0 857.3 0 835.8 0C814.3 0 792.7 0 771.2 0C749.7 0 728.3 0 707 0C685.7 0 664.3 0 643 0C621.7 0 600.3 0 578.8 0C557.3 0 535.7 0 514.2 0C492.7 0 471.3 0 450 0C428.7 0 407.3 0 385.8 0C364.3 0 342.7 0 321.2 0C299.7 0 278.3 0 257 0C235.7 0 214.3 0 193 0C171.7 0 150.3 0 128.8 0C107.3 0 85.7 0 64.2 0C42.7 0 21.3 0 10.7 0L0 0Z" fill="#aec1f7"></path><path d="M0 111L10.7 111C21.3 111 42.7 111 64.2 113.5C85.7 116 107.3 121 128.8 121.2C150.3 121.3 171.7 116.7 193 116.8C214.3 117 235.7 122 257 127.2C278.3 132.3 299.7 137.7 321.2 136.5C342.7 135.3 364.3 127.7 385.8 127.5C407.3 127.3 428.7 134.7 450 131.7C471.3 128.7 492.7 115.3 514.2 112.8C535.7 110.3 557.3 118.7 578.8 124.8C600.3 131 621.7 135 643 136.3C664.3 137.7 685.7 136.3 707 133.2C728.3 130 749.7 125 771.2 125.3C792.7 125.7 814.3 131.3 835.8 131.5C857.3 131.7 878.7 126.3 889.3 123.7L900 121L900 0L889.3 0C878.7 0 857.3 0 835.8 0C814.3 0 792.7 0 771.2 0C749.7 0 728.3 0 707 0C685.7 0 664.3 0 643 0C621.7 0 600.3 0 578.8 0C557.3 0 535.7 0 514.2 0C492.7 0 471.3 0 450 0C428.7 0 407.3 0 385.8 0C364.3 0 342.7 0 321.2 0C299.7 0 278.3 0 257 0C235.7 0 214.3 0 193 0C171.7 0 150.3 0 128.8 0C107.3 0 85.7 0 64.2 0C42.7 0 21.3 0 10.7 0L0 0Z" fill="#aabdf4"></path><path d="M0 113L10.7 110C21.3 107 42.7 101 64.2 97.5C85.7 94 107.3 93 128.8 97.5C150.3 102 171.7 112 193 117.2C214.3 122.3 235.7 122.7 257 120.3C278.3 118 299.7 113 321.2 111.3C342.7 109.7 364.3 111.3 385.8 110.8C407.3 110.3 428.7 107.7 450 105.2C471.3 102.7 492.7 100.3 514.2 97.2C535.7 94 557.3 90 578.8 88.8C600.3 87.7 621.7 89.3 643 89.3C664.3 89.3 685.7 87.7 707 91.7C728.3 95.7 749.7 105.3 771.2 105.5C792.7 105.7 814.3 96.3 835.8 91.7C857.3 87 878.7 87 889.3 87L900 87L900 0L889.3 0C878.7 0 857.3 0 835.8 0C814.3 0 792.7 0 771.2 0C749.7 0 728.3 0 707 0C685.7 0 664.3 0 643 0C621.7 0 600.3 0 578.8 0C557.3 0 535.7 0 514.2 0C492.7 0 471.3 0 450 0C428.7 0 407.3 0 385.8 0C364.3 0 342.7 0 321.2 0C299.7 0 278.3 0 257 0C235.7 0 214.3 0 193 0C171.7 0 150.3 0 128.8 0C107.3 0 85.7 0 64.2 0C42.7 0 21.3 0 10.7 0L0 0Z" fill="#a6b9f1"></path><path d="M0 89L10.7 88.5C21.3 88 42.7 87 64.2 88.8C85.7 90.7 107.3 95.3 128.8 98.3C150.3 101.3 171.7 102.7 193 103.7C214.3 104.7 235.7 105.3 257 102.8C278.3 100.3 299.7 94.7 321.2 89.7C342.7 84.7 364.3 80.3 385.8 77.8C407.3 75.3 428.7 74.7 450 79.3C471.3 84 492.7 94 514.2 95C535.7 96 557.3 88 578.8 87.3C600.3 86.7 621.7 93.3 643 96.8C664.3 100.3 685.7 100.7 707 96C728.3 91.3 749.7 81.7 771.2 79.2C792.7 76.7 814.3 81.3 835.8 83.5C857.3 85.7 878.7 85.3 889.3 85.2L900 85L900 0L889.3 0C878.7 0 857.3 0 835.8 0C814.3 0 792.7 0 771.2 0C749.7 0 728.3 0 707 0C685.7 0 664.3 0 643 0C621.7 0 600.3 0 578.8 0C557.3 0 535.7 0 514.2 0C492.7 0 471.3 0 450 0C428.7 0 407.3 0 385.8 0C364.3 0 342.7 0 321.2 0C299.7 0 278.3 0 257 0C235.7 0 214.3 0 193 0C171.7 0 150.3 0 128.8 0C107.3 0 85.7 0 64.2 0C42.7 0 21.3 0 10.7 0L0 0Z" fill="#a2b5ee"></path><path d="M0 69L10.7 67.2C21.3 65.3 42.7 61.7 64.2 63.7C85.7 65.7 107.3 73.3 128.8 73.5C150.3 73.7 171.7 66.3 193 64.3C214.3 62.3 235.7 65.7 257 67.7C278.3 69.7 299.7 70.3 321.2 73.3C342.7 76.3 364.3 81.7 385.8 81.5C407.3 81.3 428.7 75.7 450 71C471.3 66.3 492.7 62.7 514.2 61.8C535.7 61 557.3 63 578.8 64.5C600.3 66 621.7 67 643 69.8C664.3 72.7 685.7 77.3 707 75.7C728.3 74 749.7 66 771.2 66.7C792.7 67.3 814.3 76.7 835.8 79C857.3 81.3 878.7 76.7 889.3 74.3L900 72L900 0L889.3 0C878.7 0 857.3 0 835.8 0C814.3 0 792.7 0 771.2 0C749.7 0 728.3 0 707 0C685.7 0 664.3 0 643 0C621.7 0 600.3 0 578.8 0C557.3 0 535.7 0 514.2 0C492.7 0 471.3 0 450 0C428.7 0 407.3 0 385.8 0C364.3 0 342.7 0 321.2 0C299.7 0 278.3 0 257 0C235.7 0 214.3 0 193 0C171.7 0 150.3 0 128.8 0C107.3 0 85.7 0 64.2 0C42.7 0 21.3 0 10.7 0L0 0Z" fill="#9eb1ec"></path><path d="M0 50L10.7 50.3C21.3 50.7 42.7 51.3 64.2 52.8C85.7 54.3 107.3 56.7 128.8 59.3C150.3 62 171.7 65 193 66C214.3 67 235.7 66 257 63.3C278.3 60.7 299.7 56.3 321.2 53C342.7 49.7 364.3 47.3 385.8 49.3C407.3 51.3 428.7 57.7 450 59C471.3 60.3 492.7 56.7 514.2 57C535.7 57.3 557.3 61.7 578.8 63.3C600.3 65 621.7 64 643 62.2C664.3 60.3 685.7 57.7 707 55.8C728.3 54 749.7 53 771.2 54.3C792.7 55.7 814.3 59.3 835.8 60C857.3 60.7 878.7 58.3 889.3 57.2L900 56L900 0L889.3 0C878.7 0 857.3 0 835.8 0C814.3 0 792.7 0 771.2 0C749.7 0 728.3 0 707 0C685.7 0 664.3 0 643 0C621.7 0 600.3 0 578.8 0C557.3 0 535.7 0 514.2 0C492.7 0 471.3 0 450 0C428.7 0 407.3 0 385.8 0C364.3 0 342.7 0 321.2 0C299.7 0 278.3 0 257 0C235.7 0 214.3 0 193 0C171.7 0 150.3 0 128.8 0C107.3 0 85.7 0 64.2 0C42.7 0 21.3 0 10.7 0L0 0Z" fill="#99aee9"></path><path d="M0 45L10.7 42.7C21.3 40.3 42.7 35.7 64.2 34.8C85.7 34 107.3 37 128.8 38.2C150.3 39.3 171.7 38.7 193 37.3C214.3 36 235.7 34 257 33.3C278.3 32.7 299.7 33.3 321.2 33.8C342.7 34.3 364.3 34.7 385.8 36.8C407.3 39 428.7 43 450 41.8C471.3 40.7 492.7 34.3 514.2 33C535.7 31.7 557.3 35.3 578.8 35.2C600.3 35 621.7 31 643 30.5C664.3 30 685.7 33 707 33.5C728.3 34 749.7 32 771.2 33.3C792.7 34.7 814.3 39.3 835.8 39C857.3 38.7 878.7 33.3 889.3 30.7L900 28L900 0L889.3 0C878.7 0 857.3 0 835.8 0C814.3 0 792.7 0 771.2 0C749.7 0 728.3 0 707 0C685.7 0 664.3 0 643 0C621.7 0 600.3 0 578.8 0C557.3 0 535.7 0 514.2 0C492.7 0 471.3 0 450 0C428.7 0 407.3 0 385.8 0C364.3 0 342.7 0 321.2 0C299.7 0 278.3 0 257 0C235.7 0 214.3 0 193 0C171.7 0 150.3 0 128.8 0C107.3 0 85.7 0 64.2 0C42.7 0 21.3 0 10.7 0L0 0Z" fill="#95aae7"></path><path d="M0 18L10.7 18.5C21.3 19 42.7 20 64.2 21.2C85.7 22.3 107.3 23.7 128.8 23.2C150.3 22.7 171.7 20.3 193 18.3C214.3 16.3 235.7 14.7 257 14.2C278.3 13.7 299.7 14.3 321.2 14.7C342.7 15 364.3 15 385.8 16.2C407.3 17.3 428.7 19.7 450 21.7C471.3 23.7 492.7 25.3 514.2 25C535.7 24.7 557.3 22.3 578.8 22.2C600.3 22 621.7 24 643 23.5C664.3 23 685.7 20 707 17.8C728.3 15.7 749.7 14.3 771.2 15C792.7 15.7 814.3 18.3 835.8 18.8C857.3 19.3 878.7 17.7 889.3 16.8L900 16L900 0L889.3 0C878.7 0 857.3 0 835.8 0C814.3 0 792.7 0 771.2 0C749.7 0 728.3 0 707 0C685.7 0 664.3 0 643 0C621.7 0 600.3 0 578.8 0C557.3 0 535.7 0 514.2 0C492.7 0 471.3 0 450 0C428.7 0 407.3 0 385.8 0C364.3 0 342.7 0 321.2 0C299.7 0 278.3 0 257 0C235.7 0 214.3 0 193 0C171.7 0 150.3 0 128.8 0C107.3 0 85.7 0 64.2 0C42.7 0 21.3 0 10.7 0L0 0Z" fill="#91a6e4"></path></svg>