<svg id="visual" viewBox="0 0 900 600" width="900" height="600" xmlns="http://www.w3.org/2000/svg" xmlns:xlink="http://www.w3.org/1999/xlink" version="1.1"><rect x="0" y="0" width="900" height="600" fill="#001220"></rect><path d="M0 307L21.5 308.8C43 310.7 86 314.3 128.8 322.3C171.7 330.3 214.3 342.7 257.2 346.5C300 350.3 343 345.7 385.8 345.2C428.7 344.7 471.3 348.3 514.2 349.5C557 350.7 600 349.3 642.8 335.2C685.7 321 728.3 294 771.2 290.5C814 287 857 307 878.5 317L900 327L900 0L878.5 0C857 0 814 0 771.2 0C728.3 0 685.7 0 642.8 0C600 0 557 0 514.2 0C471.3 0 428.7 0 385.8 0C343 0 300 0 257.2 0C214.3 0 171.7 0 128.8 0C86 0 43 0 21.5 0L0 0Z" fill="#001220"></path><path d="M0 224L21.5 228.3C43 232.7 86 241.3 128.8 258.2C171.7 275 214.3 300 257.2 303.8C300 307.7 343 290.3 385.8 270.8C428.7 251.3 471.3 229.7 514.2 238.5C557 247.3 600 286.7 642.8 294.5C685.7 302.3 728.3 278.7 771.2 274C814 269.3 857 283.7 878.5 290.8L900 298L900 0L878.5 0C857 0 814 0 771.2 0C728.3 0 685.7 0 642.8 0C600 0 557 0 514.2 0C471.3 0 428.7 0 385.8 0C343 0 300 0 257.2 0C214.3 0 171.7 0 128.8 0C86 0 43 0 21.5 0L0 0Z" fill="#283b51"></path><path d="M0 200L21.5 209.5C43 219 86 238 128.8 242.5C171.7 247 214.3 237 257.2 220C300 203 343 179 385.8 173.5C428.7 168 471.3 181 514.2 187.5C557 194 600 194 642.8 196.3C685.7 198.7 728.3 203.3 771.2 197.7C814 192 857 176 878.5 168L900 160L900 0L878.5 0C857 0 814 0 771.2 0C728.3 0 685.7 0 642.8 0C600 0 557 0 514.2 0C471.3 0 428.7 0 385.8 0C343 0 300 0 257.2 0C214.3 0 171.7 0 128.8 0C86 0 43 0 21.5 0L0 0Z" fill="#546887"></path><path d="M0 133L21.5 136.7C43 140.3 86 147.7 128.8 152.8C171.7 158 214.3 161 257.2 151.7C300 142.3 343 120.7 385.8 120.8C428.7 121 471.3 143 514.2 151C557 159 600 153 642.8 142.8C685.7 132.7 728.3 118.3 771.2 112C814 105.7 857 107.3 878.5 108.2L900 109L900 0L878.5 0C857 0 814 0 771.2 0C728.3 0 685.7 0 642.8 0C600 0 557 0 514.2 0C471.3 0 428.7 0 385.8 0C343 0 300 0 257.2 0C214.3 0 171.7 0 128.8 0C86 0 43 0 21.5 0L0 0Z" fill="#8599c1"></path><path d="M0 74L21.5 80.8C43 87.7 86 101.3 128.8 100.2C171.7 99 214.3 83 257.2 76.7C300 70.3 343 73.7 385.8 78C428.7 82.3 471.3 87.7 514.2 83.7C557 79.7 600 66.3 642.8 67.5C685.7 68.7 728.3 84.3 771.2 87.7C814 91 857 82 878.5 77.5L900 73L900 0L878.5 0C857 0 814 0 771.2 0C728.3 0 685.7 0 642.8 0C600 0 557 0 514.2 0C471.3 0 428.7 0 385.8 0C343 0 300 0 257.2 0C214.3 0 171.7 0 128.8 0C86 0 43 0 21.5 0L0 0Z" fill="#bbccff"></path></svg>