<svg id="visual" viewBox="0 0 900 900" width="900" height="900" xmlns="http://www.w3.org/2000/svg" xmlns:xlink="http://www.w3.org/1999/xlink" version="1.1"><rect x="0" y="0" width="900" height="900" fill="#000"></rect><path d="M0 602L21.5 613.7C43 625.3 86 648.7 128.8 638C171.7 627.3 214.3 582.7 257.2 562.7C300 542.7 343 547.3 385.8 561.8C428.7 576.3 471.3 600.7 514.2 596.8C557 593 600 561 642.8 556.8C685.7 552.7 728.3 576.3 771.2 584.8C814 593.3 857 586.7 878.5 583.3L900 580L900 901L878.5 901C857 901 814 901 771.2 901C728.3 901 685.7 901 642.8 901C600 901 557 901 514.2 901C471.3 901 428.7 901 385.8 901C343 901 300 901 257.2 901C214.3 901 171.7 901 128.8 901C86 901 43 901 21.5 901L0 901Z" fill="#738aa5"></path><path d="M0 611L21.5 622.7C43 634.3 86 657.7 128.8 670.7C171.7 683.7 214.3 686.3 257.2 671.2C300 656 343 623 385.8 623.2C428.7 623.3 471.3 656.7 514.2 663.7C557 670.7 600 651.3 642.8 642.7C685.7 634 728.3 636 771.2 639.3C814 642.7 857 647.3 878.5 649.7L900 652L900 901L878.5 901C857 901 814 901 771.2 901C728.3 901 685.7 901 642.8 901C600 901 557 901 514.2 901C471.3 901 428.7 901 385.8 901C343 901 300 901 257.2 901C214.3 901 171.7 901 128.8 901C86 901 43 901 21.5 901L0 901Z" fill="#9db3dd"></path><path d="M0 768L21.5 765.3C43 762.7 86 757.3 128.8 744.5C171.7 731.7 214.3 711.3 257.2 698.8C300 686.3 343 681.7 385.8 677.8C428.7 674 471.3 671 514.2 673.8C557 676.7 600 685.3 642.8 699C685.7 712.7 728.3 731.3 771.2 742C814 752.7 857 755.3 878.5 756.7L900 758L900 901L878.5 901C857 901 814 901 771.2 901C728.3 901 685.7 901 642.8 901C600 901 557 901 514.2 901C471.3 901 428.7 901 385.8 901C343 901 300 901 257.2 901C214.3 901 171.7 901 128.8 901C86 901 43 901 21.5 901L0 901Z" fill="#bbccff"></path><path d="M0 758L21.5 754.5C43 751 86 744 128.8 738C171.7 732 214.3 727 257.2 729.7C300 732.3 343 742.7 385.8 757.8C428.7 773 471.3 793 514.2 798.3C557 803.7 600 794.3 642.8 780C685.7 765.7 728.3 746.3 771.2 744.8C814 743.3 857 759.7 878.5 767.8L900 776L900 901L878.5 901C857 901 814 901 771.2 901C728.3 901 685.7 901 642.8 901C600 901 557 901 514.2 901C471.3 901 428.7 901 385.8 901C343 901 300 901 257.2 901C214.3 901 171.7 901 128.8 901C86 901 43 901 21.5 901L0 901Z" fill="#9db3dd"></path><path d="M0 857L21.5 848.3C43 839.7 86 822.3 128.8 820C171.7 817.7 214.3 830.3 257.2 835.5C300 840.7 343 838.3 385.8 836.2C428.7 834 471.3 832 514.2 827.3C557 822.7 600 815.3 642.8 814.3C685.7 813.3 728.3 818.7 771.2 823.3C814 828 857 832 878.5 834L900 836L900 901L878.5 901C857 901 814 901 771.2 901C728.3 901 685.7 901 642.8 901C600 901 557 901 514.2 901C471.3 901 428.7 901 385.8 901C343 901 300 901 257.2 901C214.3 901 171.7 901 128.8 901C86 901 43 901 21.5 901L0 901Z" fill="#738aa5"></path></svg>