<svg id="visual" viewBox="0 0 900 675" width="900" height="675" xmlns="http://www.w3.org/2000/svg" xmlns:xlink="http://www.w3.org/1999/xlink" version="1.1"><rect x="0" y="0" width="900" height="675" fill="#000"></rect><path d="M0 452L21.5 460.7C43 469.3 86 486.7 128.8 478.5C171.7 470.3 214.3 436.7 257.2 421.7C300 406.7 343 410.3 385.8 421.2C428.7 432 471.3 450 514.2 447.2C557 444.3 600 420.7 642.8 417.5C685.7 414.3 728.3 431.7 771.2 438C814 444.3 857 439.7 878.5 437.3L900 435L900 676L878.5 676C857 676 814 676 771.2 676C728.3 676 685.7 676 642.8 676C600 676 557 676 514.2 676C471.3 676 428.7 676 385.8 676C343 676 300 676 257.2 676C214.3 676 171.7 676 128.8 676C86 676 43 676 21.5 676L0 676Z" fill="#738aa5"></path><path d="M0 458L21.5 466.7C43 475.3 86 492.7 128.8 502.3C171.7 512 214.3 514 257.2 502.7C300 491.3 343 466.7 385.8 467C428.7 467.3 471.3 492.7 514.2 498C557 503.3 600 488.7 642.8 482C685.7 475.3 728.3 476.7 771.2 479C814 481.3 857 484.7 878.5 486.3L900 488L900 676L878.5 676C857 676 814 676 771.2 676C728.3 676 685.7 676 642.8 676C600 676 557 676 514.2 676C471.3 676 428.7 676 385.8 676C343 676 300 676 257.2 676C214.3 676 171.7 676 128.8 676C86 676 43 676 21.5 676L0 676Z" fill="#9db3dd"></path><path d="M0 575L21.5 573C43 571 86 567 128.8 557.5C171.7 548 214.3 533 257.2 523.7C300 514.3 343 510.7 385.8 507.8C428.7 505 471.3 503 514.2 505.3C557 507.7 600 514.3 642.8 524.5C685.7 534.7 728.3 548.3 771.2 556.2C814 564 857 566 878.5 567L900 568L900 676L878.5 676C857 676 814 676 771.2 676C728.3 676 685.7 676 642.8 676C600 676 557 676 514.2 676C471.3 676 428.7 676 385.8 676C343 676 300 676 257.2 676C214.3 676 171.7 676 128.8 676C86 676 43 676 21.5 676L0 676Z" fill="#bbccff"></path><path d="M0 568L21.5 565.5C43 563 86 558 128.8 553.5C171.7 549 214.3 545 257.2 546.8C300 548.7 343 556.3 385.8 567.8C428.7 579.3 471.3 594.7 514.2 598.8C557 603 600 596 642.8 585.2C685.7 574.3 728.3 559.7 771.2 558.3C814 557 857 569 878.5 575L900 581L900 676L878.5 676C857 676 814 676 771.2 676C728.3 676 685.7 676 642.8 676C600 676 557 676 514.2 676C471.3 676 428.7 676 385.8 676C343 676 300 676 257.2 676C214.3 676 171.7 676 128.8 676C86 676 43 676 21.5 676L0 676Z" fill="#9db3dd"></path><path d="M0 642L21.5 635.5C43 629 86 616 128.8 614.3C171.7 612.7 214.3 622.3 257.2 626.3C300 630.3 343 628.7 385.8 627C428.7 625.3 471.3 623.7 514.2 620.2C557 616.7 600 611.3 642.8 610.5C685.7 609.7 728.3 613.3 771.2 616.7C814 620 857 623 878.5 624.5L900 626L900 676L878.5 676C857 676 814 676 771.2 676C728.3 676 685.7 676 642.8 676C600 676 557 676 514.2 676C471.3 676 428.7 676 385.8 676C343 676 300 676 257.2 676C214.3 676 171.7 676 128.8 676C86 676 43 676 21.5 676L0 676Z" fill="#738aa5"></path></svg>