<svg id="visual" viewBox="0 0 900 300" width="900" height="300" xmlns="http://www.w3.org/2000/svg" xmlns:xlink="http://www.w3.org/1999/xlink" version="1.1"><rect x="0" y="0" width="900" height="300" fill="#000000"></rect><path d="M0 96L21.5 93.8C43 91.7 86 87.3 128.8 81.2C171.7 75 214.3 67 257.2 76.2C300 85.3 343 111.7 385.8 121.8C428.7 132 471.3 126 514.2 120.3C557 114.7 600 109.3 642.8 98.2C685.7 87 728.3 70 771.2 68.5C814 67 857 81 878.5 88L900 95L900 301L878.5 301C857 301 814 301 771.2 301C728.3 301 685.7 301 642.8 301C600 301 557 301 514.2 301C471.3 301 428.7 301 385.8 301C343 301 300 301 257.2 301C214.3 301 171.7 301 128.8 301C86 301 43 301 21.5 301L0 301Z" fill="#738aa5"></path><path d="M0 145L21.5 137C43 129 86 113 128.8 108.7C171.7 104.3 214.3 111.7 257.2 115.8C300 120 343 121 385.8 124C428.7 127 471.3 132 514.2 133.7C557 135.3 600 133.7 642.8 131C685.7 128.3 728.3 124.7 771.2 119.3C814 114 857 107 878.5 103.5L900 100L900 301L878.5 301C857 301 814 301 771.2 301C728.3 301 685.7 301 642.8 301C600 301 557 301 514.2 301C471.3 301 428.7 301 385.8 301C343 301 300 301 257.2 301C214.3 301 171.7 301 128.8 301C86 301 43 301 21.5 301L0 301Z" fill="#839abb"></path><path d="M0 192L21.5 191.8C43 191.7 86 191.3 128.8 194C171.7 196.7 214.3 202.3 257.2 202.5C300 202.7 343 197.3 385.8 190.2C428.7 183 471.3 174 514.2 173.8C557 173.7 600 182.3 642.8 185.5C685.7 188.7 728.3 186.3 771.2 180.5C814 174.7 857 165.3 878.5 160.7L900 156L900 301L878.5 301C857 301 814 301 771.2 301C728.3 301 685.7 301 642.8 301C600 301 557 301 514.2 301C471.3 301 428.7 301 385.8 301C343 301 300 301 257.2 301C214.3 301 171.7 301 128.8 301C86 301 43 301 21.5 301L0 301Z" fill="#94abd2"></path><path d="M0 210L21.5 209.3C43 208.7 86 207.3 128.8 212C171.7 216.7 214.3 227.3 257.2 223C300 218.7 343 199.3 385.8 191C428.7 182.7 471.3 185.3 514.2 192.3C557 199.3 600 210.7 642.8 213.7C685.7 216.7 728.3 211.3 771.2 214.2C814 217 857 228 878.5 233.5L900 239L900 301L878.5 301C857 301 814 301 771.2 301C728.3 301 685.7 301 642.8 301C600 301 557 301 514.2 301C471.3 301 428.7 301 385.8 301C343 301 300 301 257.2 301C214.3 301 171.7 301 128.8 301C86 301 43 301 21.5 301L0 301Z" fill="#a7bbe8"></path><path d="M0 261L21.5 257.8C43 254.7 86 248.3 128.8 246.7C171.7 245 214.3 248 257.2 248.8C300 249.7 343 248.3 385.8 245.5C428.7 242.7 471.3 238.3 514.2 241.7C557 245 600 256 642.8 258.7C685.7 261.3 728.3 255.7 771.2 256.3C814 257 857 264 878.5 267.5L900 271L900 301L878.5 301C857 301 814 301 771.2 301C728.3 301 685.7 301 642.8 301C600 301 557 301 514.2 301C471.3 301 428.7 301 385.8 301C343 301 300 301 257.2 301C214.3 301 171.7 301 128.8 301C86 301 43 301 21.5 301L0 301Z" fill="#bbccff"></path></svg>