<svg id="visual" viewBox="0 0 900 300" width="900" height="300" xmlns="http://www.w3.org/2000/svg" xmlns:xlink="http://www.w3.org/1999/xlink" version="1.1"><rect x="0" y="0" width="900" height="300" fill="#bcf"></rect><path d="M0 115L21.5 109.7C43 104.3 86 93.7 128.8 83C171.7 72.3 214.3 61.7 257.2 71.3C300 81 343 111 385.8 127C428.7 143 471.3 145 514.2 129.8C557 114.7 600 82.3 642.8 66.7C685.7 51 728.3 52 771.2 63.8C814 75.7 857 98.3 878.5 109.7L900 121L900 301L878.5 301C857 301 814 301 771.2 301C728.3 301 685.7 301 642.8 301C600 301 557 301 514.2 301C471.3 301 428.7 301 385.8 301C343 301 300 301 257.2 301C214.3 301 171.7 301 128.8 301C86 301 43 301 21.5 301L0 301Z" fill="#bbccff"></path><path d="M0 112L21.5 121.8C43 131.7 86 151.3 128.8 151.7C171.7 152 214.3 133 257.2 131.7C300 130.3 343 146.7 385.8 145.7C428.7 144.7 471.3 126.3 514.2 123.2C557 120 600 132 642.8 129.7C685.7 127.3 728.3 110.7 771.2 106.2C814 101.7 857 109.3 878.5 113.2L900 117L900 301L878.5 301C857 301 814 301 771.2 301C728.3 301 685.7 301 642.8 301C600 301 557 301 514.2 301C471.3 301 428.7 301 385.8 301C343 301 300 301 257.2 301C214.3 301 171.7 301 128.8 301C86 301 43 301 21.5 301L0 301Z" fill="#869ac5"></path><path d="M0 174L21.5 175.7C43 177.3 86 180.7 128.8 174.8C171.7 169 214.3 154 257.2 151.5C300 149 343 159 385.8 165.2C428.7 171.3 471.3 173.7 514.2 169.5C557 165.3 600 154.7 642.8 149C685.7 143.3 728.3 142.7 771.2 148.2C814 153.7 857 165.3 878.5 171.2L900 177L900 301L878.5 301C857 301 814 301 771.2 301C728.3 301 685.7 301 642.8 301C600 301 557 301 514.2 301C471.3 301 428.7 301 385.8 301C343 301 300 301 257.2 301C214.3 301 171.7 301 128.8 301C86 301 43 301 21.5 301L0 301Z" fill="#556b8d"></path><path d="M0 209L21.5 210C43 211 86 213 128.8 210.2C171.7 207.3 214.3 199.7 257.2 204.2C300 208.7 343 225.3 385.8 232.8C428.7 240.3 471.3 238.7 514.2 229.5C557 220.3 600 203.7 642.8 198.7C685.7 193.7 728.3 200.3 771.2 200.2C814 200 857 193 878.5 189.5L900 186L900 301L878.5 301C857 301 814 301 771.2 301C728.3 301 685.7 301 642.8 301C600 301 557 301 514.2 301C471.3 301 428.7 301 385.8 301C343 301 300 301 257.2 301C214.3 301 171.7 301 128.8 301C86 301 43 301 21.5 301L0 301Z" fill="#283f59"></path><path d="M0 231L21.5 233.5C43 236 86 241 128.8 243.8C171.7 246.7 214.3 247.3 257.2 243.8C300 240.3 343 232.7 385.8 229.5C428.7 226.3 471.3 227.7 514.2 234.8C557 242 600 255 642.8 257.7C685.7 260.3 728.3 252.7 771.2 252.8C814 253 857 261 878.5 265L900 269L900 301L878.5 301C857 301 814 301 771.2 301C728.3 301 685.7 301 642.8 301C600 301 557 301 514.2 301C471.3 301 428.7 301 385.8 301C343 301 300 301 257.2 301C214.3 301 171.7 301 128.8 301C86 301 43 301 21.5 301L0 301Z" fill="#001829"></path></svg>