<svg id="visual" viewBox="0 0 900 300" width="900" height="300" xmlns="http://www.w3.org/2000/svg" xmlns:xlink="http://www.w3.org/1999/xlink" version="1.1"><rect x="0" y="0" width="900" height="300" fill="#001220"></rect><path d="M0 191L21.5 192.3C43 193.7 86 196.3 128.8 201.5C171.7 206.7 214.3 214.3 257.2 216.7C300 219 343 216 385.8 215.7C428.7 215.3 471.3 217.7 514.2 218.3C557 219 600 218 642.8 209.2C685.7 200.3 728.3 183.7 771.2 181.5C814 179.3 857 191.7 878.5 197.8L900 204L900 0L878.5 0C857 0 814 0 771.2 0C728.3 0 685.7 0 642.8 0C600 0 557 0 514.2 0C471.3 0 428.7 0 385.8 0C343 0 300 0 257.2 0C214.3 0 171.7 0 128.8 0C86 0 43 0 21.5 0L0 0Z" fill="#bbccff"></path><path d="M0 140L21.5 142.7C43 145.3 86 150.7 128.8 161.2C171.7 171.7 214.3 187.3 257.2 189.7C300 192 343 181 385.8 168.8C428.7 156.7 471.3 143.3 514.2 148.8C557 154.3 600 178.7 642.8 183.5C685.7 188.3 728.3 173.7 771.2 170.8C814 168 857 177 878.5 181.5L900 186L900 0L878.5 0C857 0 814 0 771.2 0C728.3 0 685.7 0 642.8 0C600 0 557 0 514.2 0C471.3 0 428.7 0 385.8 0C343 0 300 0 257.2 0C214.3 0 171.7 0 128.8 0C86 0 43 0 21.5 0L0 0Z" fill="#3d516b"></path><path d="M0 125L21.5 130.8C43 136.7 86 148.3 128.8 151C171.7 153.7 214.3 147.3 257.2 136.7C300 126 343 111 385.8 107.7C428.7 104.3 471.3 112.7 514.2 116.8C557 121 600 121 642.8 122.5C685.7 124 728.3 127 771.2 123.5C814 120 857 110 878.5 105L900 100L900 0L878.5 0C857 0 814 0 771.2 0C728.3 0 685.7 0 642.8 0C600 0 557 0 514.2 0C471.3 0 428.7 0 385.8 0C343 0 300 0 257.2 0C214.3 0 171.7 0 128.8 0C86 0 43 0 21.5 0L0 0Z" fill="#001220"></path><path d="M0 83L21.5 85.2C43 87.3 86 91.7 128.8 94.8C171.7 98 214.3 100 257.2 94.3C300 88.7 343 75.3 385.8 75.5C428.7 75.7 471.3 89.3 514.2 94.2C557 99 600 95 642.8 88.7C685.7 82.3 728.3 73.7 771.2 69.7C814 65.7 857 66.3 878.5 66.7L900 67L900 0L878.5 0C857 0 814 0 771.2 0C728.3 0 685.7 0 642.8 0C600 0 557 0 514.2 0C471.3 0 428.7 0 385.8 0C343 0 300 0 257.2 0C214.3 0 171.7 0 128.8 0C86 0 43 0 21.5 0L0 0Z" fill="#3d516b"></path><path d="M0 46L21.5 50.2C43 54.3 86 62.7 128.8 61.8C171.7 61 214.3 51 257.2 47.2C300 43.3 343 45.7 385.8 48.5C428.7 51.3 471.3 54.7 514.2 52.2C557 49.7 600 41.3 642.8 42C685.7 42.7 728.3 52.3 771.2 54.3C814 56.3 857 50.7 878.5 47.8L900 45L900 0L878.5 0C857 0 814 0 771.2 0C728.3 0 685.7 0 642.8 0C600 0 557 0 514.2 0C471.3 0 428.7 0 385.8 0C343 0 300 0 257.2 0C214.3 0 171.7 0 128.8 0C86 0 43 0 21.5 0L0 0Z" fill="#bbccff"></path></svg>