<svg id="visual" viewBox="0 0 900 300" width="900" height="300" xmlns="http://www.w3.org/2000/svg" xmlns:xlink="http://www.w3.org/1999/xlink" version="1.1"><rect x="0" y="0" width="900" height="300" fill="#bcf"></rect><path d="M0 218L5.2 218.5C10.3 219 20.7 220 31 214.7C41.3 209.3 51.7 197.7 62 191.5C72.3 185.3 82.7 184.7 93 179C103.3 173.3 113.7 162.7 124 158.3C134.3 154 144.7 156 155 163.5C165.3 171 175.7 184 186 186.2C196.3 188.3 206.7 179.7 217 175.5C227.3 171.3 237.7 171.7 248 179.8C258.3 188 268.7 204 279 213.2C289.3 222.3 299.7 224.7 310 222.7C320.3 220.7 330.7 214.3 341 209.5C351.3 204.7 361.7 201.3 372 202.5C382.3 203.7 392.7 209.3 403 210.8C413.3 212.3 423.7 209.7 434.2 209.2C444.7 208.7 455.3 210.3 465.8 210.2C476.3 210 486.7 208 497 207.2C507.3 206.3 517.7 206.7 528 205.8C538.3 205 548.7 203 559 194.8C569.3 186.7 579.7 172.3 590 170C600.3 167.7 610.7 177.3 621 179C631.3 180.7 641.7 174.3 652 178.5C662.3 182.7 672.7 197.3 683 197.3C693.3 197.3 703.7 182.7 714 177C724.3 171.3 734.7 174.7 745 184.7C755.3 194.7 765.7 211.3 776 217.5C786.3 223.7 796.7 219.3 807 212.7C817.3 206 827.7 197 838 193.3C848.3 189.7 858.7 191.3 869 189.3C879.3 187.3 889.7 181.7 894.8 178.8L900 176L900 301L894.8 301C889.7 301 879.3 301 869 301C858.7 301 848.3 301 838 301C827.7 301 817.3 301 807 301C796.7 301 786.3 301 776 301C765.7 301 755.3 301 745 301C734.7 301 724.3 301 714 301C703.7 301 693.3 301 683 301C672.7 301 662.3 301 652 301C641.7 301 631.3 301 621 301C610.7 301 600.3 301 590 301C579.7 301 569.3 301 559 301C548.7 301 538.3 301 528 301C517.7 301 507.3 301 497 301C486.7 301 476.3 301 465.8 301C455.3 301 444.7 301 434.2 301C423.7 301 413.3 301 403 301C392.7 301 382.3 301 372 301C361.7 301 351.3 301 341 301C330.7 301 320.3 301 310 301C299.7 301 289.3 301 279 301C268.7 301 258.3 301 248 301C237.7 301 227.3 301 217 301C206.7 301 196.3 301 186 301C175.7 301 165.3 301 155 301C144.7 301 134.3 301 124 301C113.7 301 103.3 301 93 301C82.7 301 72.3 301 62 301C51.7 301 41.3 301 31 301C20.7 301 10.3 301 5.2 301L0 301Z" fill="#000" stroke-linecap="round" stroke-linejoin="miter"></path></svg>