<svg id="visual" viewBox="0 0 900 300" width="900" height="300" xmlns="http://www.w3.org/2000/svg" xmlns:xlink="http://www.w3.org/1999/xlink" version="1.1"><rect x="0" y="0" width="900" height="300" fill="#bcf"></rect><path d="M0 88L21.5 91.3C43 94.7 86 101.3 128.8 95C171.7 88.7 214.3 69.3 257.2 66.3C300 63.3 343 76.7 385.8 84.3C428.7 92 471.3 94 514.2 90.3C557 86.7 600 77.3 642.8 69.5C685.7 61.7 728.3 55.3 771.2 59.3C814 63.3 857 77.7 878.5 84.8L900 92L900 301L878.5 301C857 301 814 301 771.2 301C728.3 301 685.7 301 642.8 301C600 301 557 301 514.2 301C471.3 301 428.7 301 385.8 301C343 301 300 301 257.2 301C214.3 301 171.7 301 128.8 301C86 301 43 301 21.5 301L0 301Z" fill="#bbccff"></path><path d="M0 94L21.5 106.2C43 118.3 86 142.7 128.8 142.8C171.7 143 214.3 119 257.2 121.2C300 123.3 343 151.7 385.8 164.3C428.7 177 471.3 174 514.2 159.8C557 145.7 600 120.3 642.8 118.5C685.7 116.7 728.3 138.3 771.2 144.7C814 151 857 142 878.5 137.5L900 133L900 301L878.5 301C857 301 814 301 771.2 301C728.3 301 685.7 301 642.8 301C600 301 557 301 514.2 301C471.3 301 428.7 301 385.8 301C343 301 300 301 257.2 301C214.3 301 171.7 301 128.8 301C86 301 43 301 21.5 301L0 301Z" fill="#869ac5"></path><path d="M0 158L21.5 158C43 158 86 158 128.8 162.3C171.7 166.7 214.3 175.3 257.2 178.7C300 182 343 180 385.8 175.7C428.7 171.3 471.3 164.7 514.2 163.3C557 162 600 166 642.8 165.3C685.7 164.7 728.3 159.3 771.2 161.2C814 163 857 172 878.5 176.5L900 181L900 301L878.5 301C857 301 814 301 771.2 301C728.3 301 685.7 301 642.8 301C600 301 557 301 514.2 301C471.3 301 428.7 301 385.8 301C343 301 300 301 257.2 301C214.3 301 171.7 301 128.8 301C86 301 43 301 21.5 301L0 301Z" fill="#556b8d"></path><path d="M0 220L21.5 222.3C43 224.7 86 229.3 128.8 228.2C171.7 227 214.3 220 257.2 220.2C300 220.3 343 227.7 385.8 225.7C428.7 223.7 471.3 212.3 514.2 206.2C557 200 600 199 642.8 200C685.7 201 728.3 204 771.2 202.3C814 200.7 857 194.3 878.5 191.2L900 188L900 301L878.5 301C857 301 814 301 771.2 301C728.3 301 685.7 301 642.8 301C600 301 557 301 514.2 301C471.3 301 428.7 301 385.8 301C343 301 300 301 257.2 301C214.3 301 171.7 301 128.8 301C86 301 43 301 21.5 301L0 301Z" fill="#283f59"></path><path d="M0 239L21.5 236.7C43 234.3 86 229.7 128.8 229.3C171.7 229 214.3 233 257.2 237C300 241 343 245 385.8 247C428.7 249 471.3 249 514.2 252.5C557 256 600 263 642.8 263.3C685.7 263.7 728.3 257.3 771.2 252C814 246.7 857 242.3 878.5 240.2L900 238L900 301L878.5 301C857 301 814 301 771.2 301C728.3 301 685.7 301 642.8 301C600 301 557 301 514.2 301C471.3 301 428.7 301 385.8 301C343 301 300 301 257.2 301C214.3 301 171.7 301 128.8 301C86 301 43 301 21.5 301L0 301Z" fill="#001829"></path></svg>