<svg id="visual" viewBox="0 0 900 200" width="900" height="200" xmlns="http://www.w3.org/2000/svg" xmlns:xlink="http://www.w3.org/1999/xlink" version="1.1"><rect x="0" y="0" width="900" height="200" fill="#bcf"></rect><path d="M0 122L5.2 122.5C10.3 123 20.7 124 31 118.8C41.3 113.7 51.7 102.3 62 96.5C72.3 90.7 82.7 90.3 93 85C103.3 79.7 113.7 69.3 124 65.2C134.3 61 144.7 63 155 70.2C165.3 77.3 175.7 89.7 186 91.7C196.3 93.7 206.7 85.3 217 81.3C227.3 77.3 237.7 77.7 248 85.3C258.3 93 268.7 108 279 116.7C289.3 125.3 299.7 127.7 310 125.8C320.3 124 330.7 118 341 113.5C351.3 109 361.7 106 372 107.2C382.3 108.3 392.7 113.7 403 115C413.3 116.3 423.7 113.7 434.2 113.2C444.7 112.7 455.3 114.3 465.8 114.2C476.3 114 486.7 112 497 111.3C507.3 110.7 517.7 111.3 528 110.7C538.3 110 548.7 108 559 100C569.3 92 579.7 78 590 75.7C600.3 73.3 610.7 82.7 621 84.3C631.3 86 641.7 80 652 84.2C662.3 88.3 672.7 102.7 683 102.7C693.3 102.7 703.7 88.3 714 82.8C724.3 77.3 734.7 80.7 745 90.2C755.3 99.7 765.7 115.3 776 121.2C786.3 127 796.7 123 807 116.8C817.3 110.7 827.7 102.3 838 98.8C848.3 95.3 858.7 96.7 869 94.5C879.3 92.3 889.7 86.7 894.8 83.8L900 81L900 201L894.8 201C889.7 201 879.3 201 869 201C858.7 201 848.3 201 838 201C827.7 201 817.3 201 807 201C796.7 201 786.3 201 776 201C765.7 201 755.3 201 745 201C734.7 201 724.3 201 714 201C703.7 201 693.3 201 683 201C672.7 201 662.3 201 652 201C641.7 201 631.3 201 621 201C610.7 201 600.3 201 590 201C579.7 201 569.3 201 559 201C548.7 201 538.3 201 528 201C517.7 201 507.3 201 497 201C486.7 201 476.3 201 465.8 201C455.3 201 444.7 201 434.2 201C423.7 201 413.3 201 403 201C392.7 201 382.3 201 372 201C361.7 201 351.3 201 341 201C330.7 201 320.3 201 310 201C299.7 201 289.3 201 279 201C268.7 201 258.3 201 248 201C237.7 201 227.3 201 217 201C206.7 201 196.3 201 186 201C175.7 201 165.3 201 155 201C144.7 201 134.3 201 124 201C113.7 201 103.3 201 93 201C82.7 201 72.3 201 62 201C51.7 201 41.3 201 31 201C20.7 201 10.3 201 5.2 201L0 201Z" fill="#000" stroke-linecap="round" stroke-linejoin="miter"></path></svg>