<svg id="visual" viewBox="0 0 900 300" width="900" height="300" xmlns="http://www.w3.org/2000/svg" xmlns:xlink="http://www.w3.org/1999/xlink" version="1.1"><rect x="0" y="0" width="900" height="300" fill="#001829"></rect><path d="M0 124L25 128.7C50 133.3 100 142.7 150 143.2C200 143.7 250 135.3 300 144.7C350 154 400 181 450 193.5C500 206 550 204 600 199.5C650 195 700 188 750 176.2C800 164.3 850 147.7 875 139.3L900 131L900 301L875 301C850 301 800 301 750 301C700 301 650 301 600 301C550 301 500 301 450 301C400 301 350 301 300 301C250 301 200 301 150 301C100 301 50 301 25 301L0 301Z" fill="#BBCCFF" stroke-linecap="round" stroke-linejoin="miter"></path></svg>