<svg id="visual" viewBox="0 0 1920 1200" width="1920" height="1200" xmlns="http://www.w3.org/2000/svg" xmlns:xlink="http://www.w3.org/1999/xlink" version="1.1"><rect x="0" y="0" width="1920" height="1200" fill="#000"></rect><path d="M0 804L45.7 819.5C91.3 835 182.7 866 274.2 851.7C365.7 837.3 457.3 777.7 548.8 750.8C640.3 724 731.7 730 823 749.2C914.3 768.3 1005.7 800.7 1097 795.7C1188.3 790.7 1279.7 748.3 1371.2 742.8C1462.7 737.3 1554.3 768.7 1645.8 780C1737.3 791.3 1828.7 782.7 1874.3 778.3L1920 774L1920 1201L1874.3 1201C1828.7 1201 1737.3 1201 1645.8 1201C1554.3 1201 1462.7 1201 1371.2 1201C1279.7 1201 1188.3 1201 1097 1201C1005.7 1201 914.3 1201 823 1201C731.7 1201 640.3 1201 548.8 1201C457.3 1201 365.7 1201 274.2 1201C182.7 1201 91.3 1201 45.7 1201L0 1201Z" fill="#738aa5"></path><path d="M0 815L45.7 830.5C91.3 846 182.7 877 274.2 894.3C365.7 911.7 457.3 915.3 548.8 895.2C640.3 875 731.7 831 823 831.3C914.3 831.7 1005.7 876.3 1097 885.7C1188.3 895 1279.7 869 1371.2 857.3C1462.7 845.7 1554.3 848.3 1645.8 852.7C1737.3 857 1828.7 863 1874.3 866L1920 869L1920 1201L1874.3 1201C1828.7 1201 1737.3 1201 1645.8 1201C1554.3 1201 1462.7 1201 1371.2 1201C1279.7 1201 1188.3 1201 1097 1201C1005.7 1201 914.3 1201 823 1201C731.7 1201 640.3 1201 548.8 1201C457.3 1201 365.7 1201 274.2 1201C182.7 1201 91.3 1201 45.7 1201L0 1201Z" fill="#9db3dd"></path><path d="M0 1024L45.7 1020.3C91.3 1016.7 182.7 1009.3 274.2 992.3C365.7 975.3 457.3 948.7 548.8 932.2C640.3 915.7 731.7 909.3 823 904.2C914.3 899 1005.7 895 1097 898.8C1188.3 902.7 1279.7 914.3 1371.2 932.5C1462.7 950.7 1554.3 975.3 1645.8 989.3C1737.3 1003.3 1828.7 1006.7 1874.3 1008.3L1920 1010L1920 1201L1874.3 1201C1828.7 1201 1737.3 1201 1645.8 1201C1554.3 1201 1462.7 1201 1371.2 1201C1279.7 1201 1188.3 1201 1097 1201C1005.7 1201 914.3 1201 823 1201C731.7 1201 640.3 1201 548.8 1201C457.3 1201 365.7 1201 274.2 1201C182.7 1201 91.3 1201 45.7 1201L0 1201Z" fill="#bbccff"></path><path d="M0 1011L45.7 1006.5C91.3 1002 182.7 993 274.2 984.8C365.7 976.7 457.3 969.3 548.8 972.7C640.3 976 731.7 990 823 1010.5C914.3 1031 1005.7 1058 1097 1065.2C1188.3 1072.3 1279.7 1059.7 1371.2 1040.5C1462.7 1021.3 1554.3 995.7 1645.8 993.5C1737.3 991.3 1828.7 1012.7 1874.3 1023.3L1920 1034L1920 1201L1874.3 1201C1828.7 1201 1737.3 1201 1645.8 1201C1554.3 1201 1462.7 1201 1371.2 1201C1279.7 1201 1188.3 1201 1097 1201C1005.7 1201 914.3 1201 823 1201C731.7 1201 640.3 1201 548.8 1201C457.3 1201 365.7 1201 274.2 1201C182.7 1201 91.3 1201 45.7 1201L0 1201Z" fill="#9db3dd"></path><path d="M0 1143L45.7 1131.3C91.3 1119.7 182.7 1096.3 274.2 1093.2C365.7 1090 457.3 1107 548.8 1114C640.3 1121 731.7 1118 823 1115.2C914.3 1112.3 1005.7 1109.7 1097 1103.3C1188.3 1097 1279.7 1087 1371.2 1085.5C1462.7 1084 1554.3 1091 1645.8 1097.2C1737.3 1103.3 1828.7 1108.7 1874.3 1111.3L1920 1114L1920 1201L1874.3 1201C1828.7 1201 1737.3 1201 1645.8 1201C1554.3 1201 1462.7 1201 1371.2 1201C1279.7 1201 1188.3 1201 1097 1201C1005.7 1201 914.3 1201 823 1201C731.7 1201 640.3 1201 548.8 1201C457.3 1201 365.7 1201 274.2 1201C182.7 1201 91.3 1201 45.7 1201L0 1201Z" fill="#738aa5"></path></svg>