<svg id="visual" viewBox="0 0 960 300" width="960" height="300" xmlns="http://www.w3.org/2000/svg" xmlns:xlink="http://www.w3.org/1999/xlink" version="1.1"><rect x="0" y="0" width="960" height="300" fill="#931C1C"></rect><path d="M0 187L137 208L274 222L411 199L549 222L686 217L823 209L960 208L960 301L823 301L686 301L549 301L411 301L274 301L137 301L0 301Z" fill="#871400"></path><path d="M0 220L137 219L274 237L411 233L549 203L686 231L823 225L960 209L960 301L823 301L686 301L549 301L411 301L274 301L137 301L0 301Z" fill="#cc4f08"></path><path d="M0 231L137 246L274 219L411 240L549 249L686 240L823 220L960 221L960 301L823 301L686 301L549 301L411 301L274 301L137 301L0 301Z" fill="#f5730a"></path><path d="M0 252L137 251L274 269L411 246L549 261L686 269L823 241L960 258L960 301L823 301L686 301L549 301L411 301L274 301L137 301L0 301Z" fill="#cc4f08"></path><path d="M0 266L137 279L274 275L411 270L549 266L686 264L823 266L960 283L960 301L823 301L686 301L549 301L411 301L274 301L137 301L0 301Z" fill="#871400"></path></svg>