<svg id="visual" viewBox="0 0 900 300" width="900" height="300" xmlns="http://www.w3.org/2000/svg" xmlns:xlink="http://www.w3.org/1999/xlink" version="1.1"><rect x="0" y="0" width="900" height="300" fill="#001220"></rect><path d="M0 123L6.8 121.7C13.7 120.3 27.3 117.7 41 135.7C54.7 153.7 68.3 192.3 82 208C95.7 223.7 109.3 216.3 123 203.5C136.7 190.7 150.3 172.3 164 164.2C177.7 156 191.3 158 204.8 155.5C218.3 153 231.7 146 245.2 160.2C258.7 174.3 272.3 209.7 286 226.3C299.7 243 313.3 241 327 235.7C340.7 230.3 354.3 221.7 368 200.2C381.7 178.7 395.3 144.3 409 140C422.7 135.7 436.3 161.3 450 180C463.7 198.7 477.3 210.3 491 210.5C504.7 210.7 518.3 199.3 532 203.7C545.7 208 559.3 228 573 241.2C586.7 254.3 600.3 260.7 614 256.8C627.7 253 641.3 239 654.8 221.3C668.3 203.7 681.7 182.3 695.2 174.7C708.7 167 722.3 173 736 162.7C749.7 152.3 763.3 125.7 777 125.8C790.7 126 804.3 153 818 181.3C831.7 209.7 845.3 239.3 859 229.3C872.7 219.3 886.3 169.7 893.2 144.8L900 120L900 0L893.2 0C886.3 0 872.7 0 859 0C845.3 0 831.7 0 818 0C804.3 0 790.7 0 777 0C763.3 0 749.7 0 736 0C722.3 0 708.7 0 695.2 0C681.7 0 668.3 0 654.8 0C641.3 0 627.7 0 614 0C600.3 0 586.7 0 573 0C559.3 0 545.7 0 532 0C518.3 0 504.7 0 491 0C477.3 0 463.7 0 450 0C436.3 0 422.7 0 409 0C395.3 0 381.7 0 368 0C354.3 0 340.7 0 327 0C313.3 0 299.7 0 286 0C272.3 0 258.7 0 245.2 0C231.7 0 218.3 0 204.8 0C191.3 0 177.7 0 164 0C150.3 0 136.7 0 123 0C109.3 0 95.7 0 82 0C68.3 0 54.7 0 41 0C27.3 0 13.7 0 6.8 0L0 0Z" fill="#637081"></path><path d="M0 94L6.8 112C13.7 130 27.3 166 41 181.2C54.7 196.3 68.3 190.7 82 197.2C95.7 203.7 109.3 222.3 123 205.8C136.7 189.3 150.3 137.7 164 126.5C177.7 115.3 191.3 144.7 204.8 147.8C218.3 151 231.7 128 245.2 121.7C258.7 115.3 272.3 125.7 286 121.5C299.7 117.3 313.3 98.7 327 99.2C340.7 99.7 354.3 119.3 368 123.5C381.7 127.7 395.3 116.3 409 131C422.7 145.7 436.3 186.3 450 203C463.7 219.7 477.3 212.3 491 208.5C504.7 204.7 518.3 204.3 532 184.8C545.7 165.3 559.3 126.7 573 116.3C586.7 106 600.3 124 614 130.5C627.7 137 641.3 132 654.8 146.5C668.3 161 681.7 195 695.2 203.5C708.7 212 722.3 195 736 177C749.7 159 763.3 140 777 150.8C790.7 161.7 804.3 202.3 818 218.5C831.7 234.7 845.3 226.3 859 217.5C872.7 208.7 886.3 199.3 893.2 194.7L900 190L900 0L893.2 0C886.3 0 872.7 0 859 0C845.3 0 831.7 0 818 0C804.3 0 790.7 0 777 0C763.3 0 749.7 0 736 0C722.3 0 708.7 0 695.2 0C681.7 0 668.3 0 654.8 0C641.3 0 627.7 0 614 0C600.3 0 586.7 0 573 0C559.3 0 545.7 0 532 0C518.3 0 504.7 0 491 0C477.3 0 463.7 0 450 0C436.3 0 422.7 0 409 0C395.3 0 381.7 0 368 0C354.3 0 340.7 0 327 0C313.3 0 299.7 0 286 0C272.3 0 258.7 0 245.2 0C231.7 0 218.3 0 204.8 0C191.3 0 177.7 0 164 0C150.3 0 136.7 0 123 0C109.3 0 95.7 0 82 0C68.3 0 54.7 0 41 0C27.3 0 13.7 0 6.8 0L0 0Z" fill="#728299"></path><path d="M0 173L6.8 175C13.7 177 27.3 181 41 176.3C54.7 171.7 68.3 158.3 82 146.5C95.7 134.7 109.3 124.3 123 132.2C136.7 140 150.3 166 164 172.3C177.7 178.7 191.3 165.3 204.8 153.5C218.3 141.7 231.7 131.3 245.2 128.8C258.7 126.3 272.3 131.7 286 122.3C299.7 113 313.3 89 327 93.5C340.7 98 354.3 131 368 130.5C381.7 130 395.3 96 409 98.7C422.7 101.3 436.3 140.7 450 158.8C463.7 177 477.3 174 491 159.7C504.7 145.3 518.3 119.7 532 102.3C545.7 85 559.3 76 573 72C586.7 68 600.3 69 614 86.3C627.7 103.7 641.3 137.3 654.8 145.8C668.3 154.3 681.7 137.7 695.2 133C708.7 128.3 722.3 135.7 736 137C749.7 138.3 763.3 133.7 777 134.8C790.7 136 804.3 143 818 155.3C831.7 167.7 845.3 185.3 859 189.2C872.7 193 886.3 183 893.2 178L900 173L900 0L893.2 0C886.3 0 872.7 0 859 0C845.3 0 831.7 0 818 0C804.3 0 790.7 0 777 0C763.3 0 749.7 0 736 0C722.3 0 708.7 0 695.2 0C681.7 0 668.3 0 654.8 0C641.3 0 627.7 0 614 0C600.3 0 586.7 0 573 0C559.3 0 545.7 0 532 0C518.3 0 504.7 0 491 0C477.3 0 463.7 0 450 0C436.3 0 422.7 0 409 0C395.3 0 381.7 0 368 0C354.3 0 340.7 0 327 0C313.3 0 299.7 0 286 0C272.3 0 258.7 0 245.2 0C231.7 0 218.3 0 204.8 0C191.3 0 177.7 0 164 0C150.3 0 136.7 0 123 0C109.3 0 95.7 0 82 0C68.3 0 54.7 0 41 0C27.3 0 13.7 0 6.8 0L0 0Z" fill="#8294b2"></path><path d="M0 54L6.8 55.2C13.7 56.3 27.3 58.7 41 70.8C54.7 83 68.3 105 82 105.5C95.7 106 109.3 85 123 79.2C136.7 73.3 150.3 82.7 164 86.5C177.7 90.3 191.3 88.7 204.8 98.3C218.3 108 231.7 129 245.2 139.7C258.7 150.3 272.3 150.7 286 136.3C299.7 122 313.3 93 327 76.2C340.7 59.3 354.3 54.7 368 50.8C381.7 47 395.3 44 409 59.7C422.7 75.3 436.3 109.7 450 125.7C463.7 141.7 477.3 139.3 491 139.8C504.7 140.3 518.3 143.7 532 145.5C545.7 147.3 559.3 147.7 573 141.8C586.7 136 600.3 124 614 121.7C627.7 119.3 641.3 126.7 654.8 133.8C668.3 141 681.7 148 695.2 145.7C708.7 143.3 722.3 131.7 736 113.8C749.7 96 763.3 72 777 77.7C790.7 83.3 804.3 118.7 818 124.5C831.7 130.3 845.3 106.7 859 98.7C872.7 90.7 886.3 98.3 893.2 102.2L900 106L900 0L893.2 0C886.3 0 872.7 0 859 0C845.3 0 831.7 0 818 0C804.3 0 790.7 0 777 0C763.3 0 749.7 0 736 0C722.3 0 708.7 0 695.2 0C681.7 0 668.3 0 654.8 0C641.3 0 627.7 0 614 0C600.3 0 586.7 0 573 0C559.3 0 545.7 0 532 0C518.3 0 504.7 0 491 0C477.3 0 463.7 0 450 0C436.3 0 422.7 0 409 0C395.3 0 381.7 0 368 0C354.3 0 340.7 0 327 0C313.3 0 299.7 0 286 0C272.3 0 258.7 0 245.2 0C231.7 0 218.3 0 204.8 0C191.3 0 177.7 0 164 0C150.3 0 136.7 0 123 0C109.3 0 95.7 0 82 0C68.3 0 54.7 0 41 0C27.3 0 13.7 0 6.8 0L0 0Z" fill="#94a6cc"></path><path d="M0 115L6.8 101.3C13.7 87.7 27.3 60.3 41 59.5C54.7 58.7 68.3 84.3 82 86.8C95.7 89.3 109.3 68.7 123 67C136.7 65.3 150.3 82.7 164 92C177.7 101.3 191.3 102.7 204.8 95.8C218.3 89 231.7 74 245.2 70.8C258.7 67.7 272.3 76.3 286 82.3C299.7 88.3 313.3 91.7 327 83.3C340.7 75 354.3 55 368 52.2C381.7 49.3 395.3 63.7 409 77.5C422.7 91.3 436.3 104.7 450 111.8C463.7 119 477.3 120 491 118.7C504.7 117.3 518.3 113.7 532 108.3C545.7 103 559.3 96 573 86C586.7 76 600.3 63 614 68C627.7 73 641.3 96 654.8 100.5C668.3 105 681.7 91 695.2 89.3C708.7 87.7 722.3 98.3 736 94.8C749.7 91.3 763.3 73.7 777 59.7C790.7 45.7 804.3 35.3 818 40.8C831.7 46.3 845.3 67.7 859 81.3C872.7 95 886.3 101 893.2 104L900 107L900 0L893.2 0C886.3 0 872.7 0 859 0C845.3 0 831.7 0 818 0C804.3 0 790.7 0 777 0C763.3 0 749.7 0 736 0C722.3 0 708.7 0 695.2 0C681.7 0 668.3 0 654.8 0C641.3 0 627.7 0 614 0C600.3 0 586.7 0 573 0C559.3 0 545.7 0 532 0C518.3 0 504.7 0 491 0C477.3 0 463.7 0 450 0C436.3 0 422.7 0 409 0C395.3 0 381.7 0 368 0C354.3 0 340.7 0 327 0C313.3 0 299.7 0 286 0C272.3 0 258.7 0 245.2 0C231.7 0 218.3 0 204.8 0C191.3 0 177.7 0 164 0C150.3 0 136.7 0 123 0C109.3 0 95.7 0 82 0C68.3 0 54.7 0 41 0C27.3 0 13.7 0 6.8 0L0 0Z" fill="#a7b8e5"></path><path d="M0 26L6.8 24.2C13.7 22.3 27.3 18.7 41 19.3C54.7 20 68.3 25 82 33.8C95.7 42.7 109.3 55.3 123 57.5C136.7 59.7 150.3 51.3 164 44.7C177.7 38 191.3 33 204.8 36C218.3 39 231.7 50 245.2 52.8C258.7 55.7 272.3 50.3 286 43.2C299.7 36 313.3 27 327 21.5C340.7 16 354.3 14 368 17.8C381.7 21.7 395.3 31.3 409 35.3C422.7 39.3 436.3 37.7 450 31.8C463.7 26 477.3 16 491 12C504.7 8 518.3 10 532 20.2C545.7 30.3 559.3 48.7 573 60C586.7 71.3 600.3 75.7 614 74.8C627.7 74 641.3 68 654.8 56.7C668.3 45.3 681.7 28.7 695.2 27.5C708.7 26.3 722.3 40.7 736 47C749.7 53.3 763.3 51.7 777 45.5C790.7 39.3 804.3 28.7 818 32.7C831.7 36.7 845.3 55.3 859 55.3C872.7 55.3 886.3 36.7 893.2 27.3L900 18L900 0L893.2 0C886.3 0 872.7 0 859 0C845.3 0 831.7 0 818 0C804.3 0 790.7 0 777 0C763.3 0 749.7 0 736 0C722.3 0 708.7 0 695.2 0C681.7 0 668.3 0 654.8 0C641.3 0 627.7 0 614 0C600.3 0 586.7 0 573 0C559.3 0 545.7 0 532 0C518.3 0 504.7 0 491 0C477.3 0 463.7 0 450 0C436.3 0 422.7 0 409 0C395.3 0 381.7 0 368 0C354.3 0 340.7 0 327 0C313.3 0 299.7 0 286 0C272.3 0 258.7 0 245.2 0C231.7 0 218.3 0 204.8 0C191.3 0 177.7 0 164 0C150.3 0 136.7 0 123 0C109.3 0 95.7 0 82 0C68.3 0 54.7 0 41 0C27.3 0 13.7 0 6.8 0L0 0Z" fill="#bbcaff"></path></svg>