<svg id="visual" viewBox="0 0 900 300" width="900" height="300" xmlns="http://www.w3.org/2000/svg" xmlns:xlink="http://www.w3.org/1999/xlink" version="1.1"><rect x="0" y="0" width="900" height="300" fill="#001829"></rect><path d="M0 108L9.3 115.8C18.7 123.7 37.3 139.3 56.2 147.7C75 156 94 157 112.8 157.7C131.7 158.3 150.3 158.7 169 154.7C187.7 150.7 206.3 142.3 225 133.7C243.7 125 262.3 116 281.2 117.2C300 118.3 319 129.7 337.8 138.5C356.7 147.3 375.3 153.7 394 153.3C412.7 153 431.3 146 450 147.5C468.7 149 487.3 159 506.2 159.8C525 160.7 544 152.3 562.8 143.2C581.7 134 600.3 124 619 119.8C637.7 115.7 656.3 117.3 675 123.8C693.7 130.3 712.3 141.7 731.2 145C750 148.3 769 143.7 787.8 137C806.7 130.3 825.3 121.7 844 118C862.7 114.3 881.3 115.7 890.7 116.3L900 117L900 0L890.7 0C881.3 0 862.7 0 844 0C825.3 0 806.7 0 787.8 0C769 0 750 0 731.2 0C712.3 0 693.7 0 675 0C656.3 0 637.7 0 619 0C600.3 0 581.7 0 562.8 0C544 0 525 0 506.2 0C487.3 0 468.7 0 450 0C431.3 0 412.7 0 394 0C375.3 0 356.7 0 337.8 0C319 0 300 0 281.2 0C262.3 0 243.7 0 225 0C206.3 0 187.7 0 169 0C150.3 0 131.7 0 112.8 0C94 0 75 0 56.2 0C37.3 0 18.7 0 9.3 0L0 0Z" fill="#bbccff"></path><path d="M0 105L9.3 107.7C18.7 110.3 37.3 115.7 56.2 114C75 112.3 94 103.7 112.8 102.2C131.7 100.7 150.3 106.3 169 109.5C187.7 112.7 206.3 113.3 225 111.8C243.7 110.3 262.3 106.7 281.2 109.8C300 113 319 123 337.8 125.3C356.7 127.7 375.3 122.3 394 117C412.7 111.7 431.3 106.3 450 108.5C468.7 110.7 487.3 120.3 506.2 124C525 127.7 544 125.3 562.8 125.7C581.7 126 600.3 129 619 127.8C637.7 126.7 656.3 121.3 675 122.8C693.7 124.3 712.3 132.7 731.2 132.7C750 132.7 769 124.3 787.8 124C806.7 123.7 825.3 131.3 844 135.2C862.7 139 881.3 139 890.7 139L900 139L900 0L890.7 0C881.3 0 862.7 0 844 0C825.3 0 806.7 0 787.8 0C769 0 750 0 731.2 0C712.3 0 693.7 0 675 0C656.3 0 637.7 0 619 0C600.3 0 581.7 0 562.8 0C544 0 525 0 506.2 0C487.3 0 468.7 0 450 0C431.3 0 412.7 0 394 0C375.3 0 356.7 0 337.8 0C319 0 300 0 281.2 0C262.3 0 243.7 0 225 0C206.3 0 187.7 0 169 0C150.3 0 131.7 0 112.8 0C94 0 75 0 56.2 0C37.3 0 18.7 0 9.3 0L0 0Z" fill="#a7bbe8"></path><path d="M0 60L9.3 66.7C18.7 73.3 37.3 86.7 56.2 94.3C75 102 94 104 112.8 104.2C131.7 104.3 150.3 102.7 169 99.3C187.7 96 206.3 91 225 85C243.7 79 262.3 72 281.2 70.7C300 69.3 319 73.7 337.8 80.2C356.7 86.7 375.3 95.3 394 99.5C412.7 103.7 431.3 103.3 450 102C468.7 100.7 487.3 98.3 506.2 91.7C525 85 544 74 562.8 70.8C581.7 67.7 600.3 72.3 619 75C637.7 77.7 656.3 78.3 675 82.8C693.7 87.3 712.3 95.7 731.2 95.5C750 95.3 769 86.7 787.8 84C806.7 81.3 825.3 84.7 844 84.2C862.7 83.7 881.3 79.3 890.7 77.2L900 75L900 0L890.7 0C881.3 0 862.7 0 844 0C825.3 0 806.7 0 787.8 0C769 0 750 0 731.2 0C712.3 0 693.7 0 675 0C656.3 0 637.7 0 619 0C600.3 0 581.7 0 562.8 0C544 0 525 0 506.2 0C487.3 0 468.7 0 450 0C431.3 0 412.7 0 394 0C375.3 0 356.7 0 337.8 0C319 0 300 0 281.2 0C262.3 0 243.7 0 225 0C206.3 0 187.7 0 169 0C150.3 0 131.7 0 112.8 0C94 0 75 0 56.2 0C37.3 0 18.7 0 9.3 0L0 0Z" fill="#94abd2"></path><path d="M0 78L9.3 75.8C18.7 73.7 37.3 69.3 56.2 64.2C75 59 94 53 112.8 53C131.7 53 150.3 59 169 58.7C187.7 58.3 206.3 51.7 225 49.5C243.7 47.3 262.3 49.7 281.2 51.8C300 54 319 56 337.8 56C356.7 56 375.3 54 394 52.5C412.7 51 431.3 50 450 51.7C468.7 53.3 487.3 57.7 506.2 56.5C525 55.3 544 48.7 562.8 49.2C581.7 49.7 600.3 57.3 619 58.5C637.7 59.7 656.3 54.3 675 51.2C693.7 48 712.3 47 731.2 49.8C750 52.7 769 59.3 787.8 60.2C806.7 61 825.3 56 844 52.5C862.7 49 881.3 47 890.7 46L900 45L900 0L890.7 0C881.3 0 862.7 0 844 0C825.3 0 806.7 0 787.8 0C769 0 750 0 731.2 0C712.3 0 693.7 0 675 0C656.3 0 637.7 0 619 0C600.3 0 581.7 0 562.8 0C544 0 525 0 506.2 0C487.3 0 468.7 0 450 0C431.3 0 412.7 0 394 0C375.3 0 356.7 0 337.8 0C319 0 300 0 281.2 0C262.3 0 243.7 0 225 0C206.3 0 187.7 0 169 0C150.3 0 131.7 0 112.8 0C94 0 75 0 56.2 0C37.3 0 18.7 0 9.3 0L0 0Z" fill="#839abb"></path><path d="M0 51L9.3 46.8C18.7 42.7 37.3 34.3 56.2 32.8C75 31.3 94 36.7 112.8 35.8C131.7 35 150.3 28 169 24.5C187.7 21 206.3 21 225 25.5C243.7 30 262.3 39 281.2 39.2C300 39.3 319 30.7 337.8 27.5C356.7 24.3 375.3 26.7 394 29.5C412.7 32.3 431.3 35.7 450 36C468.7 36.3 487.3 33.7 506.2 35.7C525 37.7 544 44.3 562.8 43.3C581.7 42.3 600.3 33.7 619 28C637.7 22.3 656.3 19.7 675 20.2C693.7 20.7 712.3 24.3 731.2 25.5C750 26.7 769 25.3 787.8 23.8C806.7 22.3 825.3 20.7 844 23.5C862.7 26.3 881.3 33.7 890.7 37.3L900 41L900 0L890.7 0C881.3 0 862.7 0 844 0C825.3 0 806.7 0 787.8 0C769 0 750 0 731.2 0C712.3 0 693.7 0 675 0C656.3 0 637.7 0 619 0C600.3 0 581.7 0 562.8 0C544 0 525 0 506.2 0C487.3 0 468.7 0 450 0C431.3 0 412.7 0 394 0C375.3 0 356.7 0 337.8 0C319 0 300 0 281.2 0C262.3 0 243.7 0 225 0C206.3 0 187.7 0 169 0C150.3 0 131.7 0 112.8 0C94 0 75 0 56.2 0C37.3 0 18.7 0 9.3 0L0 0Z" fill="#738aa5"></path></svg>